<svg width="158" height="26" viewBox="0 0 158 26" fill="none" xmlns="http://www.w3.org/2000/svg">
<path d="M155.046 25.4264C156.136 25.4264 157.082 24.4355 157.091 23.2039C157.082 21.9908 156.136 21 155.046 21C153.921 21 152.992 21.9908 153 23.2039C152.992 24.4355 153.921 25.4264 155.046 25.4264Z" fill="#FF57B2"/>
<path d="M9.88103 0L0 12.5L9.88103 24.9979L12.2174 21.0025L5.55897 12.4979L12.2174 3.99326L9.88103 0ZM14.2051 24.6994H18.5415L25.4359 0.230257H21.0974L14.2051 24.6994ZM30.119 0L27.7826 3.99539L34.441 12.5L27.7826 21.0046L30.119 25L40 12.5021L30.119 0Z" fill="#FF57B2"/>
<path d="M52.2358 11.1023C52.2457 9.13352 53.419 7.98011 55.1293 7.98011C56.8295 7.98011 57.8537 9.09375 57.8438 10.9631V19.9318H62.0795V10.2074C62.0795 6.64773 59.9915 4.46023 56.8097 4.46023C54.5426 4.46023 52.902 5.57386 52.2159 7.35369H52.0369V4.65909H48V19.9318H52.2358V11.1023Z" fill="#F8F8F8"/>
<path d="M69.2731 20.2202C71.5302 20.2202 72.9918 19.2358 73.7376 17.8139H73.8569V19.9318H77.8739V9.63068C77.8739 5.99148 74.7915 4.46023 71.391 4.46023C67.7319 4.46023 65.3256 6.21023 64.739 8.99432L68.6566 9.3125C68.945 8.2983 69.8498 7.55256 71.3711 7.55256C72.8129 7.55256 73.6381 8.27841 73.6381 9.53125V9.59091C73.6381 10.5753 72.5941 10.7045 69.9393 10.9631C66.9165 11.2415 64.2021 12.2557 64.2021 15.6662C64.2021 18.6889 66.3597 20.2202 69.2731 20.2202ZM70.4862 17.2969C69.1836 17.2969 68.2489 16.6903 68.2489 15.527C68.2489 14.3338 69.2333 13.7472 70.7248 13.5384C71.6495 13.4091 73.1609 13.1903 73.668 12.8523V14.473C73.668 16.0739 72.3455 17.2969 70.4862 17.2969Z" fill="#F8F8F8"/>
<path d="M80.6602 25.6591H84.896V17.4858H85.0252C85.6119 18.7585 86.8945 20.1804 89.3604 20.1804C92.8406 20.1804 95.555 17.4261 95.555 12.3153C95.555 7.06534 92.7212 4.46023 89.3704 4.46023C86.815 4.46023 85.592 5.98153 85.0252 7.22443H84.8363V4.65909H80.6602V25.6591ZM84.8065 12.2955C84.8065 9.57102 85.9599 7.83097 88.0181 7.83097C90.1161 7.83097 91.2298 9.65057 91.2298 12.2955C91.2298 14.9602 90.0962 16.8097 88.0181 16.8097C85.9798 16.8097 84.8065 15.0199 84.8065 12.2955Z" fill="#F8F8F8"/>
<path d="M104.779 20.2301C109.413 20.2301 112.297 17.0582 112.297 12.3551C112.297 7.62216 109.413 4.46023 104.779 4.46023C100.146 4.46023 97.2624 7.62216 97.2624 12.3551C97.2624 17.0582 100.146 20.2301 104.779 20.2301ZM104.799 16.9489C102.662 16.9489 101.568 14.9901 101.568 12.3253C101.568 9.66051 102.662 7.69176 104.799 7.69176C106.897 7.69176 107.991 9.66051 107.991 12.3253C107.991 14.9901 106.897 16.9489 104.799 16.9489Z" fill="#F8F8F8"/>
<path d="M127.258 9.0142C126.88 6.20028 124.613 4.46023 120.755 4.46023C116.848 4.46023 114.272 6.26989 114.282 9.21307C114.272 11.5 115.714 12.9815 118.697 13.5781L121.342 14.1051C122.674 14.3736 123.281 14.8608 123.301 15.6264C123.281 16.5312 122.297 17.1776 120.815 17.1776C119.304 17.1776 118.299 16.5312 118.041 15.2884L113.875 15.5071C114.272 18.4304 116.758 20.2301 120.805 20.2301C124.762 20.2301 127.596 18.2116 127.606 15.1989C127.596 12.9915 126.154 11.669 123.191 11.0625L120.427 10.5057C119.005 10.1974 118.478 9.71023 118.488 8.97443C118.478 8.05966 119.512 7.46307 120.825 7.46307C122.297 7.46307 123.172 8.26847 123.38 9.25284L127.258 9.0142Z" fill="#F8F8F8"/>
<path d="M137.897 4.65909H135.023V1H130.788V4.65909H128.7V7.84091H130.788V15.7955C130.768 18.7884 132.806 20.2699 135.879 20.1406C136.972 20.1009 137.748 19.8821 138.175 19.7429L137.509 16.5909C137.3 16.6307 136.853 16.7301 136.455 16.7301C135.61 16.7301 135.023 16.4119 135.023 15.2386V7.84091H137.897V4.65909Z" fill="#F8F8F8"/>
<path d="M152.645 9.0142C152.267 6.20028 150 4.46023 146.142 4.46023C142.234 4.46023 139.659 6.26989 139.669 9.21307C139.659 11.5 141.101 12.9815 144.084 13.5781L146.729 14.1051C148.061 14.3736 148.668 14.8608 148.688 15.6264C148.668 16.5312 147.683 17.1776 146.202 17.1776C144.69 17.1776 143.686 16.5312 143.428 15.2884L139.261 15.5071C139.659 18.4304 142.145 20.2301 146.192 20.2301C150.149 20.2301 152.983 18.2116 152.993 15.1989C152.983 12.9915 151.541 11.669 148.578 11.0625L145.814 10.5057C144.392 10.1974 143.865 9.71023 143.875 8.97443C143.865 8.05966 144.899 7.46307 146.212 7.46307C147.683 7.46307 148.558 8.26847 148.767 9.25284L152.645 9.0142Z" fill="#F8F8F8"/>
</svg>
